<svg enable-background="new 0 0 512 512" version="1.1" viewBox="0 0 512 512" xml:space="preserve" xmlns="http://www.w3.org/2000/svg" class="icon">
<rect x="150.36" y="111.79" width="211.28" height="393.5" fill="#BACBD8"/>
<g fill="#A7BAC6">
	<rect x="150.36" y="111.79" width="47.514" height="393.5"/>
	<rect x="150.36" y="111.79" width="211.28" height="34.655"/>
</g>
<polygon points="391.82 6.709 391.82 111.79 120.18 111.79 120.18 6.709 148.12 6.709 148.12 42.481 186.11 42.481 186.11 6.709 235.89 6.709 235.89 42.481 273.88 42.481 273.88 6.709 323.66 6.709 323.66 42.481 361.64 42.481 361.64 6.709" fill="#BACBD8"/>
<polygon points="176.67 42.481 176.67 111.79 120.18 111.79 120.18 6.709 148.12 6.709 148.12 42.481" fill="#A7BAC6"/>
<g fill="#FEC95B">
	<path d="m198.98 165.45c-8.027 0-14.533 6.506-14.533 14.533v39.127h29.066v-39.127c-1e-3 -8.025-6.507-14.533-14.533-14.533z"/>
	<path d="m256 250.41c-8.027 0-14.533 6.506-14.533 14.533v39.127h29.065v-39.127c0-8.026-6.506-14.533-14.532-14.533z"/>
	<path d="m313.01 335.37c-8.027 0-14.533 6.506-14.533 14.533v39.127h29.065v-39.127c1e-3 -8.026-6.506-14.533-14.532-14.533z"/>
	<path d="m217.43 505.29v-62.603c0-11.112-9.01-20.122-20.122-20.122s-20.122 9.01-20.122 20.122v62.603"/>
</g>
<path d="m391.82 0h-30.183c-3.704 0-6.707 3.004-6.707 6.707v29.066h-24.572v-29.066c0-3.704-3.004-6.707-6.707-6.707h-49.78c-3.704 0-6.707 3.004-6.707 6.707v29.066h-24.572v-29.066c0-3.704-3.004-6.707-6.707-6.707h-49.78c-3.704 0-6.707 3.004-6.707 6.707v29.066h-24.573v-29.066c0-3.704-3.004-6.707-6.707-6.707h-27.948c-3.704 0-6.707 3.004-6.707 6.707v105.08c0 3.704 3.004 6.707 6.707 6.707h23.476v386.8c0 3.704 3.004 6.707 6.707 6.707h211.28c3.704 0 6.707-3.004 6.707-6.707v-386.79h23.476c3.704 0 6.707-3.004 6.707-6.707v-105.08c1e-3 -3.703-3.003-6.707-6.707-6.707zm-181.1 498.58h-26.83v-55.895c0-7.397 6.018-13.415 13.415-13.415s13.415 6.018 13.415 13.415v55.895zm144.21 0h-130.8v-55.895c0-14.793-12.036-26.83-26.83-26.83s-26.83 12.036-26.83 26.83v55.895h-13.415v-380.09h197.87v380.09zm30.183-393.5h-258.24v-91.668h14.533v29.065c0 3.704 3.004 6.707 6.707 6.707h37.985c3.704 0 6.707-3.004 6.707-6.707v-29.065h36.365v29.065c0 3.704 3.004 6.707 6.707 6.707h37.985c3.704 0 6.707-3.004 6.707-6.707v-29.065h36.365v29.065c0 3.704 3.004 6.707 6.707 6.707h37.986c3.704 0 6.707-3.004 6.707-6.707v-29.065h16.769v91.668h6e-3z"/>
<path d="m184.45 225.82h29.066c3.704 0 6.707-3.004 6.707-6.707v-39.127c0-11.712-9.528-21.24-21.24-21.24s-21.24 9.528-21.24 21.24v39.127c0 3.703 3.004 6.707 6.707 6.707zm6.708-45.834c0-4.314 3.511-7.825 7.825-7.825s7.825 3.511 7.825 7.825v32.419h-15.651v-32.419z"/>
<path d="m241.47 310.78h29.065c3.704 0 6.707-3.004 6.707-6.707v-39.127c0-11.712-9.528-21.24-21.24-21.24s-21.24 9.528-21.24 21.24v39.127c1e-3 3.703 3.005 6.707 6.708 6.707zm6.708-45.834c0-4.314 3.511-7.825 7.825-7.825s7.825 3.511 7.825 7.825v32.419h-15.651v-32.419z"/>
<path d="m298.48 395.74h29.066c3.704 0 6.707-3.004 6.707-6.707v-39.127c0-11.712-9.528-21.24-21.24-21.24s-21.24 9.528-21.24 21.24v39.127c0 3.703 3.004 6.707 6.707 6.707zm6.708-45.834c0-4.314 3.511-7.825 7.825-7.825s7.825 3.511 7.825 7.825v32.419h-15.651v-32.419z"/>
</svg>
